<svg width="55" height="55" viewBox="0 0 55 55" fill="none" xmlns="http://www.w3.org/2000/svg">
<g filter="url(#filter-facebook)">
<path d="M22.5901 37.1016H27.1157C27.504 37.1016 27.8188 36.7867 27.8188 36.3984V26.2113H30.1699C30.5304 26.2113 30.8325 25.9387 30.8694 25.5802L31.2658 21.7331C31.2862 21.5352 31.2217 21.3378 31.0883 21.19C30.955 21.0422 30.7653 20.9579 30.5663 20.9579H27.8188V19.3996C27.8188 19.0777 27.9207 19.0537 28.0761 19.0537H30.5091C30.8974 19.0537 31.2122 18.7388 31.2122 18.3505V14.6152C31.2122 14.2279 30.8992 13.9136 30.5119 13.9121L27.1565 13.8984C24.8053 13.8984 23.5505 14.9329 22.9119 15.8007C22.0201 17.0124 21.887 18.4322 21.887 19.1706V20.9578H20.4377C20.0494 20.9578 19.7346 21.2726 19.7346 21.6609V25.5081C19.7346 25.8964 20.0494 26.2112 20.4377 26.2112H21.887V36.3984C21.887 36.7867 22.2017 37.1016 22.5901 37.1016ZM21.1408 24.805V22.3641H22.59C22.9783 22.3641 23.2931 22.0493 23.2931 21.661V19.1707C23.2931 18.715 23.3663 17.5557 24.0443 16.6342C24.6935 15.7521 25.7406 15.3048 27.1535 15.3048L29.8058 15.3155V17.6475H28.076C27.2479 17.6475 26.4124 18.1893 26.4124 19.3997V21.6611C26.4124 22.0494 26.7272 22.3642 27.1155 22.3642H29.7869L29.5354 24.8051H27.1155C26.7272 24.8051 26.4124 25.12 26.4124 25.5083V35.6953H23.293V25.5082C23.293 25.1199 22.9782 24.805 22.5899 24.805H21.1408Z" fill="#EAEAEA"/>
<path d="M41.4101 9.59039C37.1604 5.34053 31.51 3 25.5 3C19.4904 3 13.8403 5.34053 9.59039 9.59039C5.34053 13.8403 3 19.4904 3 25.5C3 31.5107 5.34053 37.1612 9.59039 41.4107C13.84 45.6599 19.4901 48 25.5 48C31.5104 48 37.1607 45.6599 41.41 41.4107C45.6596 37.1612 48 31.5108 48 25.5C48 19.4902 45.6596 13.8401 41.4101 9.59039ZM40.4157 40.4163C36.4319 44.3999 31.1348 46.5938 25.5 46.5938C19.8657 46.5938 14.5687 44.3999 10.5847 40.4163C6.60044 36.4324 4.40625 31.1349 4.40625 25.5C4.40625 19.866 6.60044 14.569 10.5847 10.5848C14.569 6.60044 19.866 4.40625 25.5 4.40625C31.1345 4.40625 36.4317 6.60044 40.4157 10.5847C44.3997 14.5689 46.5938 19.8659 46.5938 25.5C46.5938 31.1351 44.3997 36.4324 40.4157 40.4163Z" fill="#EAEAEA"/>
<path d="M40.7963 13.1045C40.5517 12.8028 40.1089 12.7567 39.8073 13.0014C39.5058 13.2461 39.4596 13.6889 39.7043 13.9904C42.3334 17.2309 43.7813 21.3184 43.7813 25.4998C43.7813 30.3836 41.8798 34.9746 38.4271 38.4272C34.9744 41.8797 30.3835 43.781 25.5 43.781C20.9948 43.781 16.6666 42.1281 13.3129 39.1267C13.0235 38.8678 12.579 38.8924 12.32 39.1817C12.0611 39.471 12.0857 39.9156 12.3751 40.1745C15.987 43.407 20.6482 45.1873 25.5 45.1873C30.7591 45.1873 35.7032 43.1397 39.4214 39.4216C43.1398 35.7033 45.1875 30.7591 45.1875 25.4998C45.1875 20.9968 43.628 16.5948 40.7963 13.1045Z" fill="#EAEAEA"/>
<path d="M7.21875 25.5C7.21875 15.4198 15.4197 7.21875 25.5 7.21875C30.0053 7.21875 34.3334 8.8718 37.6871 11.8734C37.9765 12.1325 38.4211 12.1077 38.6799 11.8184C38.9389 11.5291 38.9143 11.0845 38.625 10.8256C35.013 7.59282 30.3518 5.8125 25.5 5.8125C20.2416 5.8125 15.2977 7.86044 11.5791 11.5791C7.86044 15.2977 5.8125 20.2416 5.8125 25.5C5.8125 30.0036 7.37203 34.4058 10.2038 37.896C10.3427 38.0673 10.5456 38.1561 10.7502 38.1561C10.9058 38.1561 11.0625 38.1047 11.1928 37.999C11.4944 37.7543 11.5405 37.3115 11.2958 37.0099C8.66666 33.7695 7.21875 29.6819 7.21875 25.5Z" fill="#EAEAEA"/>
</g>
<defs>
<filter id="filter-facebook" x="0" y="0" width="55" height="55" filterUnits="userSpaceOnUse" color-interpolation-filters="sRGB">
<feFlood flood-opacity="0" result="BackgroundImageFix"/>
<feColorMatrix in="SourceAlpha" type="matrix" values="0 0 0 0 0 0 0 0 0 0 0 0 0 0 0 0 0 0 127 0"/>
<feOffset dx="2" dy="2"/>
<feGaussianBlur stdDeviation="2.5"/>
<feColorMatrix type="matrix" values="0 0 0 0 0.945833 0 0 0 0 0.8844 0 0 0 0 0.867014 0 0 0 0.7 0"/>
<feBlend mode="normal" in2="BackgroundImageFix" result="effect1_dropShadow"/>
<feBlend mode="normal" in="SourceGraphic" in2="effect1_dropShadow" result="shape"/>
</filter>
</defs>
</svg>
