<svg width="55" height="55" viewBox="0 0 55 55" fill="none" xmlns="http://www.w3.org/2000/svg">
<g filter="url(#filter-instagram)">
<path d="M34.8164 3H16.1836C8.91416 3 3 8.91416 3 16.1836V34.8164C3 42.0858 8.91416 48 16.1836 48H34.8164C42.0858 48 48 42.0858 48 34.8164V16.1836C48 8.91416 42.0858 3 34.8164 3ZM46.2422 34.8164C46.2422 41.1166 41.1166 46.2422 34.8164 46.2422H16.1836C9.88342 46.2422 4.75781 41.1166 4.75781 34.8164V16.1836C4.75781 9.88342 9.88342 4.75781 16.1836 4.75781H34.8164C41.1166 4.75781 46.2422 9.88342 46.2422 16.1836V34.8164Z" fill="#EAEAEA"/>
<path d="M34.8164 6.86719H16.1836C11.0465 6.86719 6.86719 11.0465 6.86719 16.1836V34.8164C6.86719 39.9535 11.0465 44.1328 16.1836 44.1328H21.5449C22.0303 44.1328 22.4238 43.7393 22.4238 43.2539C22.4238 42.7685 22.0303 42.375 21.5449 42.375H16.1836C12.0158 42.375 8.625 38.9842 8.625 34.8164V16.1836C8.625 12.0158 12.0158 8.625 16.1836 8.625H34.8164C38.9842 8.625 42.375 12.0158 42.375 16.1836V34.8164C42.375 38.9842 38.9842 42.375 34.8164 42.375H29.5137C29.0283 42.375 28.6348 42.7685 28.6348 43.2539C28.6348 43.7393 29.0283 44.1328 29.5137 44.1328H34.8164C39.9535 44.1328 44.1328 39.9535 44.1328 34.8164V16.1836C44.1328 11.0465 39.9535 6.86719 34.8164 6.86719Z" fill="#EAEAEA"/>
<path d="M26.1214 42.6325C25.9579 42.469 25.7312 42.375 25.5 42.375C25.2688 42.375 25.0421 42.469 24.8786 42.6325C24.7151 42.796 24.6211 43.0228 24.6211 43.2539C24.6211 43.4851 24.7151 43.7118 24.8786 43.8753C25.0421 44.0388 25.2688 44.1328 25.5 44.1328C25.7312 44.1328 25.9579 44.0388 26.1214 43.8753C26.2849 43.7118 26.3789 43.4851 26.3789 43.2539C26.3789 43.0228 26.2849 42.796 26.1214 42.6325Z" fill="#EAEAEA"/>
<path d="M18.4539 16.6852C18.1219 16.331 17.5658 16.3129 17.2115 16.6447L17.1726 16.6813C16.8195 17.0144 16.8034 17.5707 17.1365 17.9238C17.3094 18.107 17.5424 18.1995 17.776 18.1995C17.9923 18.1995 18.2092 18.12 18.379 17.9598L18.4133 17.9275C18.7675 17.5957 18.7857 17.0394 18.4539 16.6852Z" fill="#EAEAEA"/>
<path d="M25.5 13.3711C23.5696 13.3711 21.6483 13.8361 19.9438 14.7159C19.5125 14.9385 19.3433 15.4687 19.566 15.9001C19.7887 16.3313 20.3188 16.5004 20.7501 16.2779C22.2271 15.5154 23.8252 15.1289 25.5 15.1289C31.2186 15.1289 35.8711 19.7814 35.8711 25.5C35.8711 31.2186 31.2186 35.8711 25.5 35.8711C19.7814 35.8711 15.1289 31.2186 15.1289 25.5C15.1289 23.7054 15.5943 21.9372 16.4748 20.3867C16.7145 19.9646 16.5666 19.4282 16.1445 19.1884C15.7223 18.9488 15.1859 19.0966 14.9462 19.5187C13.9158 21.3333 13.3711 23.4016 13.3711 25.5C13.3711 32.1879 18.8121 37.6289 25.5 37.6289C32.1879 37.6289 37.6289 32.1879 37.6289 25.5C37.6289 18.8121 32.1879 13.3711 25.5 13.3711Z" fill="#EAEAEA"/>
<path d="M25.5 17.5898C21.1383 17.5898 17.5898 21.1383 17.5898 25.5C17.5898 29.8617 21.1383 33.4102 25.5 33.4102C29.8617 33.4102 33.4102 29.8617 33.4102 25.5C33.4102 21.1383 29.8617 17.5898 25.5 17.5898ZM25.5 31.6523C22.1076 31.6523 19.3477 28.8924 19.3477 25.5C19.3477 22.1076 22.1076 19.3477 25.5 19.3477C28.8924 19.3477 31.6523 22.1076 31.6523 25.5C31.6523 28.8924 28.8924 31.6523 25.5 31.6523Z" fill="#EAEAEA"/>
<path d="M37.0356 10.6245C35.1941 10.6245 33.6958 12.1228 33.6958 13.9644C33.6958 15.8059 35.1941 17.3042 37.0356 17.3042C38.8772 17.3042 40.3755 15.8059 40.3755 13.9644C40.3755 12.1228 38.8772 10.6245 37.0356 10.6245ZM37.0356 15.5464C36.1633 15.5464 35.4536 14.8367 35.4536 13.9644C35.4536 13.092 36.1633 12.3823 37.0356 12.3823C37.908 12.3823 38.6177 13.092 38.6177 13.9644C38.6177 14.8367 37.908 15.5464 37.0356 15.5464Z" fill="#EAEAEA"/>
</g>
<defs>
<filter id="filter-instagram" x="0" y="0" width="55" height="55" filterUnits="userSpaceOnUse" color-interpolation-filters="sRGB">
<feFlood flood-opacity="0" result="BackgroundImageFix"/>
<feColorMatrix in="SourceAlpha" type="matrix" values="0 0 0 0 0 0 0 0 0 0 0 0 0 0 0 0 0 0 127 0"/>
<feOffset dx="2" dy="2"/>
<feGaussianBlur stdDeviation="2.5"/>
<feColorMatrix type="matrix" values="0 0 0 0 0.945833 0 0 0 0 0.8844 0 0 0 0 0.867014 0 0 0 0.7 0"/>
<feBlend mode="normal" in2="BackgroundImageFix" result="effect1_dropShadow"/>
<feBlend mode="normal" in="SourceGraphic" in2="effect1_dropShadow" result="shape"/>
</filter>
</defs>
</svg>
