<svg width="55" height="46" viewBox="0 0 55 46" fill="none" xmlns="http://www.w3.org/2000/svg">
<g filter="url(#filter-youtube)">
<path d="M25.7225 6.24041L25.6588 6.24023C25.6579 6.24023 25.6572 6.24023 25.6564 6.24023C25.1721 6.24023 24.7788 6.63214 24.7775 7.11677C24.7775 7.11747 24.7775 7.11817 24.7775 7.11888C24.7773 7.60333 25.1693 7.99673 25.654 7.99805L25.7177 7.99822C25.7185 7.99822 25.7193 7.99822 25.7201 7.99822C26.2044 7.99822 26.5977 7.60632 26.599 7.12169C26.599 7.12099 26.599 7.12028 26.599 7.11958C26.5992 6.63513 26.2072 6.24173 25.7225 6.24041Z" fill="#EAEAEA"/>
<path d="M47.0676 11.6989C46.4905 9.50466 44.7881 7.77665 42.6254 7.18918C40.3952 6.58177 34.1774 6.35809 29.3539 6.2775C28.8714 6.2709 28.4685 6.6563 28.4604 7.14164C28.4523 7.62697 28.8392 8.02705 29.3246 8.03513C36.0007 8.14675 40.5603 8.44866 42.1641 8.88539C43.7224 9.30867 44.9499 10.558 45.3677 12.1465C46.2316 15.4233 46.2422 22.4294 46.2422 22.4997C46.2422 22.5701 46.2316 29.5762 45.3676 32.8536C44.9499 34.4415 43.7224 35.6909 42.1635 36.1143C38.9425 36.9915 25.634 37.0018 25.5 37.0018C25.366 37.0018 12.0575 36.9914 8.83594 36.1142C7.27764 35.6909 6.05007 34.4415 5.63232 32.8531C4.76836 29.5762 4.75781 22.5701 4.75781 22.4998C4.75781 22.4294 4.76836 15.4233 5.63241 12.146C6.05007 10.5581 7.27764 9.30875 8.83646 8.8853C10.4754 8.43899 15.1698 8.13498 22.0551 8.02907C22.5405 8.02168 22.9278 7.62213 22.9204 7.1368C22.9129 6.65147 22.5122 6.2673 22.0281 6.27152C17.0562 6.3479 10.6516 6.5692 8.37513 7.1891C6.21187 7.77665 4.50952 9.50475 3.93261 11.6984C3.01063 15.1954 3 22.2032 3 22.4998C3 22.7964 3.01063 29.8042 3.93243 33.3007C4.50952 35.4949 6.21187 37.2229 8.3746 37.8104C11.8206 38.7488 24.9431 38.7596 25.5 38.7596C26.0569 38.7596 39.1794 38.7488 42.6249 37.8105C44.7881 37.223 46.4905 35.4949 47.0674 33.3012C47.9894 29.8042 48 22.7964 48 22.4998C48 22.2032 47.9894 15.1954 47.0676 11.6989Z" fill="#EAEAEA"/>
<path d="M8.09766 20.1729C7.61224 20.1729 7.21875 20.5663 7.21875 21.0518V28.2148C7.21875 28.7003 7.61224 29.0938 8.09766 29.0938C8.58308 29.0938 8.97656 28.7003 8.97656 28.2148V21.0518C8.97656 20.5663 8.58308 20.1729 8.09766 20.1729Z" fill="#EAEAEA"/>
<path d="M8.09766 16.1738C7.61224 16.1738 7.21875 16.5673 7.21875 17.0527V17.0631C7.21875 17.5485 7.61224 17.942 8.09766 17.942C8.58308 17.942 8.97656 17.5485 8.97656 17.0631V17.0527C8.97656 16.5673 8.58308 16.1738 8.09766 16.1738Z" fill="#EAEAEA"/>
<path d="M32.6285 21.8738L21.7301 15.5457C21.4582 15.3877 21.1227 15.3871 20.8502 15.544C20.5777 15.7009 20.4098 15.9913 20.4098 16.3057V28.962C20.4098 29.2765 20.5777 29.5668 20.8502 29.7237C20.9859 29.8019 21.1373 29.8409 21.2887 29.8409C21.4412 29.8409 21.5937 29.8013 21.7301 29.7221L32.6285 23.3939C32.8995 23.2366 33.0661 22.9471 33.0661 22.6339C33.0661 22.3206 32.8994 22.0311 32.6285 21.8738ZM22.1676 27.4353V17.8324L30.4368 22.6339L22.1676 27.4353Z" fill="#EAEAEA"/>
</g>
<defs>
<filter id="filter-youtube" x="0" y="-3" width="55" height="55" filterUnits="userSpaceOnUse" color-interpolation-filters="sRGB">
<feFlood flood-opacity="0" result="BackgroundImageFix"/>
<feColorMatrix in="SourceAlpha" type="matrix" values="0 0 0 0 0 0 0 0 0 0 0 0 0 0 0 0 0 0 127 0"/>
<feOffset dx="2" dy="2"/>
<feGaussianBlur stdDeviation="2.5"/>
<feColorMatrix type="matrix" values="0 0 0 0 0.945833 0 0 0 0 0.8844 0 0 0 0 0.867014 0 0 0 0.7 0"/>
<feBlend mode="normal" in2="BackgroundImageFix" result="effect1_dropShadow"/>
<feBlend mode="normal" in="SourceGraphic" in2="effect1_dropShadow" result="shape"/>
</filter>
</defs>
</svg>
