<svg width="169" height="173" viewBox="0 0 169 173" fill="none" xmlns="http://www.w3.org/2000/svg">
<g clip-path="url(#clip0)">
<path d="M84.2899 172.956C73.5942 172.956 62.8984 172.922 52.2051 173C50.8286 173.01 50.0309 172.533 49.2454 171.531C46.8013 168.416 44.2866 165.359 41.8109 162.268C39.4859 159.364 37.1853 156.438 34.8579 153.539C33.0072 151.234 31.1176 148.96 29.2644 146.657C27.1535 144.035 25.0741 141.387 22.9656 138.765C21.1125 136.462 19.2253 134.186 17.3721 131.88C15.2612 129.259 13.1819 126.613 11.0733 123.989C9.23965 121.707 7.3865 119.443 5.54064 117.169C3.7337 114.942 1.93161 112.712 0.117372 110.491C-0.0480013 110.289 -0.0261137 110.18 0.105212 109.959C2.33045 106.184 4.5484 102.407 6.74446 98.6184C8.85297 94.9802 10.9177 91.3176 13.0262 87.6794C15.2952 83.7616 17.6032 79.868 19.8722 75.9501C21.5673 73.0244 23.2186 70.0721 24.9112 67.1464C26.7668 63.9411 28.6588 60.7552 30.5169 57.5499C32.3895 54.3203 34.228 51.0687 36.1006 47.8366C37.9587 44.6313 39.8507 41.4455 41.7063 38.2401C43.5619 35.0348 45.4029 31.8198 47.2244 28.595C47.5041 28.0989 47.7327 27.9457 48.3407 28.1329C54.5081 30.0201 60.6878 31.8635 66.8625 33.7191C72.2809 35.3461 77.709 36.9415 83.108 38.6268C84.4018 39.0305 85.4889 38.5441 86.6173 38.211C93.2249 36.2654 99.8204 34.276 106.416 32.294C110.99 30.9175 115.567 29.5386 120.13 28.1256C120.723 27.9408 121.003 28.1086 121.28 28.5901C124.033 33.3835 126.786 38.1793 129.561 42.9606C132.484 47.9947 135.441 53.0094 138.362 58.0436C140.724 62.1122 143.039 66.2077 145.395 70.2812C147.647 74.1748 149.936 78.044 152.19 81.9376C153.885 84.8632 155.537 87.8156 157.229 90.7413C159.085 93.9466 160.974 97.1325 162.835 100.335C164.637 103.436 166.403 106.559 168.229 109.645C168.545 110.177 168.353 110.535 168.078 110.88C166.753 112.546 165.391 114.183 164.056 115.842C162.149 118.21 160.259 120.596 158.35 122.962C156.495 125.263 154.61 127.542 152.757 129.847C150.646 132.469 148.567 135.115 146.458 137.739C144.624 140.02 142.764 142.279 140.928 144.561C139.038 146.907 137.173 149.271 135.283 151.616C133.688 153.595 132.068 155.555 130.473 157.537C128.583 159.884 126.718 162.248 124.828 164.593C123.233 166.572 121.62 168.54 120.018 170.512C119.495 171.154 118.916 171.76 118.469 172.448C118.15 172.939 117.763 172.961 117.277 172.961C106.28 172.954 95.2848 172.956 84.2899 172.956Z" fill="#EF4F22"/>
<path d="M84.1586 0C88.4365 4.28025 92.6194 8.46808 96.8024 12.6535C97.656 13.5071 98.7382 13.5071 99.5919 12.6511C103.585 8.65777 107.583 4.66936 111.562 0.661493C111.968 0.252924 112.365 0.0486392 112.96 0.058367C115.183 0.0948464 117.406 0.0924144 119.629 0.060799C120.212 0.0535031 120.385 0.21158 120.383 0.80741C120.363 8.67723 120.366 16.5471 120.378 24.4193C120.378 24.9714 120.261 25.1854 119.634 25.358C114.519 26.7686 109.432 28.2715 104.329 29.7258C97.8165 31.579 91.2916 33.3859 84.7934 35.2877C83.9544 35.5334 83.3172 35.1832 82.6605 35.0008C77.7747 33.6462 72.9206 32.1797 68.0445 30.791C61.7287 28.9938 55.4056 27.2306 49.0825 25.465C48.3845 25.2705 48.0513 24.9762 48.0562 24.1372C48.0975 16.4473 48.0951 8.75749 48.0586 1.06763C48.0538 0.216444 48.3091 0.0389114 49.1019 0.0559351C51.3539 0.107006 53.6084 0.0851186 55.8604 0.0656629C56.2811 0.0632309 56.5827 0.177533 56.8842 0.479096C60.1868 3.80358 63.5259 7.09159 66.7993 10.4453C67.5459 11.2113 68.2415 12.0333 69.0002 12.7921C69.6617 13.4536 70.8607 13.439 71.5343 12.7629C75.5276 8.76964 79.5233 4.7788 83.5117 0.780659C83.7403 0.549623 83.93 0.277243 84.1586 0Z" fill="#EF4F22"/>
<path d="M84.161 169.892C73.7352 169.892 63.3094 169.88 52.886 169.914C52.0811 169.916 51.5849 169.649 51.1156 169.06C47.8835 165.023 44.6222 161.01 41.3902 156.973C37.9587 152.686 34.5928 148.347 31.1176 144.096C28.2284 140.56 25.3587 137.009 22.5133 133.437C19.8965 130.154 17.2019 126.934 14.5681 123.663C11.7348 120.144 8.93809 116.593 6.11702 113.067C5.47012 112.257 4.78187 111.479 4.10822 110.691C3.72883 110.246 3.59751 109.922 3.98419 109.28C5.91273 106.085 7.72211 102.816 9.59472 99.5841C11.4527 96.3787 13.3424 93.1929 15.2004 89.9875C17.09 86.7311 18.948 83.4577 20.8352 80.2013C23.5931 75.4444 26.3728 70.7021 29.1282 65.9428C31.6623 61.5652 34.1697 57.1731 36.7038 52.7956C39.4592 48.0387 42.2365 43.2939 44.9968 38.537C46.2054 36.4504 47.4263 34.3711 48.5717 32.2504C48.9268 31.5938 49.2648 31.5232 49.9263 31.7251C56.4926 33.7096 63.0711 35.6527 69.6422 37.625C74.1341 38.9748 78.6356 40.2977 83.0934 41.7496C84.2899 42.1387 85.2676 41.7448 86.2963 41.4383C92.0819 39.7141 97.8554 37.9436 103.639 36.2023C108.717 34.6726 113.799 33.1575 118.882 31.6424C119.254 31.5305 119.522 31.533 119.775 31.9853C120.954 34.0865 122.209 36.1488 123.423 38.233C125.315 41.4845 127.199 44.7409 129.082 47.9998C130.745 50.8768 132.401 53.7586 134.065 56.6357C135.699 59.4592 137.343 62.2778 138.975 65.1037C140.651 68.0051 142.316 70.9161 143.992 73.8199C145.595 76.5947 147.2 79.3696 148.81 82.142C150.259 84.6348 151.721 87.1178 153.168 89.6082C155.057 92.8621 156.942 96.1185 158.825 99.3749C160.252 101.843 161.672 104.317 163.095 106.79C163.623 107.707 164.107 108.655 164.693 109.533C164.965 109.942 164.861 110.129 164.601 110.448C162.679 112.804 160.743 115.149 158.881 117.554C157.015 119.961 155.019 122.267 153.107 124.638C151.293 126.89 149.561 129.21 147.706 131.431C146.093 133.359 144.544 135.339 142.968 137.296C141.062 139.668 139.172 142.051 137.263 144.417C135.405 146.718 133.522 148.999 131.669 151.302C129.799 153.625 127.963 155.974 126.088 158.294C124.174 160.663 122.228 163.01 120.302 165.369C119.257 166.65 118.162 167.903 117.209 169.25C116.83 169.787 116.46 169.899 115.888 169.899C105.312 169.89 94.7352 169.892 84.161 169.892Z" fill="#272727"/>
<path d="M115.322 13.2494C115.322 10.8174 115.324 8.383 115.322 5.95104C115.322 5.16795 114.74 4.82018 114.081 5.21902C113.882 5.34062 113.731 5.5449 113.561 5.71271C109.483 9.78867 105.399 13.8622 101.333 17.9528C100.966 18.3224 100.608 18.4902 100.085 18.4756C98.7357 18.4392 97.3811 18.4416 96.0314 18.4756C95.5669 18.4878 95.2483 18.337 94.9394 18.0111C93.8061 16.8219 92.6583 15.6448 91.5298 14.4483C89.3873 12.1769 87.1134 10.0294 84.9344 7.7896C84.4309 7.2716 84.1707 7.30808 83.6868 7.80176C80.3307 11.1992 76.9356 14.5602 73.5722 17.9503C73.205 18.32 72.8499 18.4902 72.3246 18.4756C71.0041 18.4392 69.6811 18.4392 68.3606 18.4756C67.8352 18.4902 67.4802 18.32 67.113 17.9503C63.0467 13.8598 58.9635 9.78624 54.8851 5.71028C54.7367 5.56193 54.5957 5.40628 54.4327 5.27253C54.0898 4.99285 53.6837 5.11445 53.314 5.15822C53.027 5.19227 53.1316 5.49383 53.1316 5.68353C53.1268 10.7298 53.1341 15.7762 53.1146 20.8225C53.1122 21.2481 53.3213 21.4183 53.6448 21.5107C56.1789 22.2403 58.7154 22.965 61.2544 23.6825C68.1368 25.628 75.0168 27.576 81.9041 29.5021C82.7967 29.7526 83.6795 30.3412 84.6133 30.098C87.3079 29.4 89.9734 28.5877 92.651 27.8241C95.8076 26.9243 98.9643 26.0317 102.121 25.1246C106.263 23.9354 110.395 22.7218 114.546 21.5667C115.151 21.3988 115.344 21.1605 115.336 20.5501C115.305 18.1157 115.322 15.6813 115.322 13.2494Z" fill="#272727"/>
<path d="M84.1805 165.565C74.4162 165.565 64.6543 165.561 54.89 165.575C54.2285 165.575 53.8029 165.441 53.3384 164.846C50.9915 161.84 48.528 158.926 46.1373 155.954C43.5449 152.734 40.9986 149.478 38.4061 146.258C36.0131 143.289 33.5714 140.358 31.1784 137.389C28.8437 134.492 26.5528 131.562 24.2229 128.663C22.3722 126.357 20.4826 124.084 18.6294 121.781C16.5185 119.159 14.4343 116.515 12.3307 113.889C11.2776 112.573 10.2246 111.257 9.13264 109.973C8.87485 109.672 8.84567 109.472 9.03536 109.149C10.4605 106.712 11.8783 104.273 13.2913 101.831C14.7359 99.3384 16.1683 96.8383 17.6153 94.348C19.4879 91.1184 21.3727 87.896 23.2453 84.6664C24.6753 82.2004 26.098 79.7271 27.5231 77.2562C29.3738 74.0484 31.2197 70.8358 33.0777 67.6329C34.5223 65.1402 35.9839 62.6547 37.4309 60.1644C39.3206 56.9104 41.2078 53.6565 43.0925 50.4001C44.756 47.5231 46.4146 44.6436 48.0707 41.7642C48.9803 40.1834 49.8923 38.6075 50.7824 37.017C51.0402 36.5549 51.4244 36.6206 51.7892 36.73C55.1015 37.7247 58.4066 38.7437 61.7189 39.7408C66.3202 41.127 70.9239 42.5084 75.53 43.88C78.2538 44.6923 80.9995 45.4413 83.7062 46.3071C84.589 46.5892 85.2967 46.1903 86.019 45.9836C89.9929 44.8479 93.9399 43.6222 97.8967 42.4281C104.237 40.5142 110.577 38.6075 116.912 36.6814C117.386 36.5379 117.61 36.786 117.788 37.0972C119.21 39.5681 120.606 42.0536 122.029 44.5244C123.615 47.275 125.215 50.0182 126.815 52.7615C128.265 55.2518 129.726 57.7349 131.173 60.2276C133.063 63.4816 134.948 66.738 136.83 69.9944C138.258 72.4628 139.675 74.9385 141.1 77.407C142.951 80.6147 144.804 83.8225 146.66 87.0278C148.105 89.5206 149.564 92.006 151.006 94.4988C152.859 97.7065 154.698 100.922 156.551 104.127C157.521 105.807 158.506 107.478 159.491 109.149C159.642 109.404 159.659 109.577 159.44 109.844C158.302 111.238 157.205 112.668 156.084 114.076C154.206 116.433 152.329 118.784 150.439 121.131C148.844 123.111 147.227 125.073 145.634 127.055C143.506 129.701 141.395 132.362 139.267 135.008C137.674 136.99 136.057 138.953 134.461 140.932C132.333 143.578 130.222 146.239 128.092 148.882C126.477 150.886 124.838 152.868 123.226 154.872C121.115 157.494 119.026 160.132 116.92 162.757C116.29 163.542 115.621 164.296 114.998 165.089C114.66 165.517 114.244 165.578 113.736 165.578C103.887 165.563 94.0348 165.565 84.1805 165.565Z" fill="#EF4F22"/>
<path d="M46.0401 92.0981C42.0833 91.1399 38.1581 90.1842 34.2305 89.2357C32.8053 88.8904 31.3754 88.5693 29.9502 88.2167C29.5465 88.117 29.2206 88.0951 29.6025 87.4385C31.4678 84.2356 33.2212 80.9695 35.0355 77.7374C37.3847 73.5569 39.7632 69.3958 42.11 65.2128C43.8805 62.0585 45.6169 58.8848 47.3679 55.7209C47.5357 55.4193 47.5673 55.1591 48.1024 55.4825C52.4459 58.1261 56.7942 60.7623 61.1061 63.4569C62.4145 64.2741 63.8955 63.8144 65.3061 63.829C65.5079 63.8314 65.7122 63.705 65.9092 63.7147C68.4263 63.8363 70.9312 63.5129 73.4458 63.5275C76.0505 63.5445 78.6478 63.3499 81.25 63.294C82.7067 63.2624 84.1756 63.1189 85.6324 63.187C89.4238 63.3621 93.2177 63.4277 97.0067 63.5761C98.6166 63.6393 100.229 63.6588 101.841 63.7001C102.945 63.7269 104.047 63.8314 105.137 63.9312C106.873 64.0892 108.004 63.0167 109.288 62.2458C112.941 60.0497 116.569 57.8172 120.203 55.5895C120.662 55.3074 120.923 55.2466 121.253 55.8473C123.376 59.7141 125.568 63.5445 127.72 67.3967C129.254 70.1448 130.743 72.9172 132.285 75.6605C134.345 79.3279 136.465 82.9612 138.496 86.6457C139.478 88.4283 139.349 87.9954 137.652 88.4088C134.602 89.1481 131.555 89.8972 128.505 90.6462C126.684 91.0937 124.872 91.5996 123.036 91.9741C122.365 92.1103 122.523 92.3389 122.712 92.7256C123.639 94.6346 124.563 96.5437 125.48 98.4577C127.45 102.575 129.415 106.695 131.378 110.817C131.757 111.612 132.054 112.461 132.518 113.2C132.868 113.757 132.691 114.017 132.243 114.285C130.325 115.428 128.401 116.564 126.482 117.709C121.864 120.467 117.248 123.227 112.63 125.987C112.301 126.184 112.06 126.445 111.953 126.839C110.677 131.596 109.395 136.35 108.104 141.105C107.09 144.84 106.058 148.568 105.047 152.304C104.962 152.622 104.808 152.763 104.492 152.761C104.283 152.758 104.071 152.761 103.862 152.761C90.7638 152.761 77.6653 152.751 64.5667 152.785C63.7229 152.788 63.4334 152.447 63.2462 151.752C61.3128 144.56 59.3745 137.371 57.4314 130.183C57.1322 129.078 56.8234 127.977 56.4975 126.882C56.3929 126.53 56.2203 126.26 55.8214 126.058C51.3223 123.784 46.8207 121.513 42.3654 119.154C40.4101 118.118 38.4378 117.121 36.4533 116.15C35.7991 115.829 35.6726 115.532 35.9912 114.82C38.3429 109.567 40.6338 104.287 42.9539 99.0195C43.9753 96.7115 45.0114 94.406 46.0401 92.0981Z" fill="#272727"/>
<path d="M84.2462 58.858C83.0132 58.4957 81.8094 58.1284 80.5958 57.7855C74.815 56.1488 69.0318 54.5219 63.2511 52.8851C59.0219 51.6862 54.7927 50.4799 50.566 49.2737C49.778 49.0499 49.0047 48.7703 48.2094 48.583C47.6792 48.459 47.7109 48.2377 47.8957 47.8291C48.7396 45.9638 48.759 45.9224 50.7168 46.4161C59.4183 48.6098 68.1126 50.8204 76.8117 53.0238C79.2291 53.6366 81.6367 54.2762 84.0662 54.8307C84.8906 55.018 85.6616 54.5073 86.452 54.3127C93.4293 52.5982 100.409 50.8958 107.362 49.0816C111.192 48.082 115.042 47.1579 118.868 46.1438C119.495 45.9759 119.75 46.1486 119.967 46.6496C120.062 46.866 120.147 47.0898 120.271 47.2868C120.996 48.4468 120.988 48.4079 119.743 48.7532C116.608 49.6215 113.486 50.5261 110.358 51.4211C104.697 53.0457 99.0374 54.6872 93.3733 56.2972C90.4404 57.1313 87.4953 57.912 84.555 58.7218C84.4456 58.751 84.3435 58.8143 84.2462 58.858Z" fill="#272727"/>
<path d="M59.7806 153.306C58.1584 153.306 56.782 153.311 55.403 153.304C54.5081 153.299 54.3281 152.43 53.9025 151.932C52.2001 149.933 50.595 147.851 48.9559 145.801C46.8547 143.172 44.7608 140.541 42.6547 137.919C41.0618 135.937 39.4494 133.974 37.8564 131.995C35.9498 129.626 34.065 127.243 32.1559 124.876C30.3003 122.576 28.4229 120.295 26.5624 117.999C24.9525 116.012 23.3522 114.015 21.6085 111.851C23.2501 111.851 24.7068 111.783 26.1514 111.878C26.9418 111.929 27.1753 112.816 27.613 113.337C29.2862 115.321 30.8646 117.386 32.4842 119.417C34.639 122.116 36.7961 124.813 38.9606 127.505C40.517 129.439 42.0929 131.355 43.6494 133.291C45.8138 135.981 47.9612 138.687 50.1305 141.375C51.9861 143.675 53.866 145.954 55.7265 148.252C57.0373 149.867 58.3335 151.499 59.7806 153.306Z" fill="#272727"/>
<path d="M146.879 111.843C144.114 115.314 141.48 118.65 138.814 121.96C136.424 124.93 133.982 127.858 131.589 130.827C128.997 134.045 126.453 137.301 123.86 140.518C121.47 143.488 119.035 146.423 116.635 149.383C115.801 150.412 115.006 151.477 114.188 152.52C113.79 153.028 113.357 153.381 112.613 153.325C111.598 153.245 110.572 153.311 109.551 153.298C109.366 153.296 109.108 153.41 109.025 153.114C108.969 152.914 109.101 152.785 109.218 152.642C111.851 149.412 114.495 146.195 117.104 142.948C119.916 139.453 122.686 135.925 125.49 132.425C127.338 130.119 129.233 127.85 131.083 125.547C133.192 122.926 135.261 120.272 137.38 117.658C138.885 115.8 140.456 113.993 141.876 112.065C142.015 111.875 142.207 111.841 142.428 111.841C143.866 111.848 145.298 111.843 146.879 111.843Z" fill="#272727"/>
<path d="M112.751 91.0234C110.01 88.6863 107.26 86.3492 104.524 83.9951C104.234 83.7446 104.033 83.7105 103.66 83.8686C101.365 84.839 99.0008 85.6658 96.7561 86.7432C95.3966 87.3974 93.9886 87.305 92.6048 87.4752C91.0118 87.6722 89.3873 87.626 87.7773 87.6892C87.573 87.6965 87.3809 87.7038 87.1718 87.7816C86.8629 87.8959 86.6659 87.9665 86.8751 88.3361C88.862 91.8795 90.4476 95.649 92.7069 99.0367C95.9536 103.906 99.2683 108.728 102.566 113.563C104.555 116.479 106.55 119.392 108.583 122.277C108.884 122.705 108.877 123.03 108.646 123.407C107.719 124.91 106.773 126.399 105.849 127.902C105.565 128.366 105.302 128.478 104.711 128.286C100.669 126.968 96.598 125.73 92.5488 124.431C91.9895 124.251 91.5785 124.244 91.0702 124.604C90.2093 125.212 89.2705 125.715 88.3537 126.241C88.1689 126.348 87.933 126.404 87.9646 126.654C87.9938 126.892 88.2564 126.795 88.4072 126.849C91.7195 128.038 95.0343 129.222 98.3515 130.397C100.093 131.015 101.834 131.635 103.588 132.211C104.514 132.515 103.884 133.067 103.853 133.519C103.809 134.127 103.5 134.008 103.065 133.855C97.7581 131.973 92.4418 130.12 87.1377 128.237C86.3814 127.97 85.9801 127.23 85.4135 126.71C85.0171 126.345 84.6693 125.927 84.268 125.501C83.6284 126.226 82.8842 126.737 82.4124 127.522C82.196 127.88 81.8239 128.099 81.4202 128.24C77.9571 129.444 74.4964 130.645 71.0381 131.856C69.185 132.505 67.3197 133.13 65.4933 133.853C64.6786 134.176 64.6883 133.578 64.5254 133.174C64.3673 132.785 64.236 132.418 64.8804 132.199C68.684 130.908 72.4754 129.575 76.2644 128.242C77.5655 127.785 78.8496 127.289 80.1434 126.812C80.2699 126.766 80.479 126.851 80.5033 126.644C80.5301 126.435 80.3501 126.355 80.192 126.26C79.1633 125.635 78.1468 124.986 77.1035 124.383C76.7289 124.166 76.3301 124.293 75.9094 124.426C71.8577 125.72 67.7891 126.96 63.7471 128.281C63.1513 128.476 62.8862 128.356 62.6114 127.894C61.7237 126.406 60.858 124.901 59.9192 123.446C59.5715 122.906 59.5885 122.556 59.9557 122.031C62.6333 118.196 65.2744 114.336 67.9228 110.482C70.8022 106.286 73.6987 102.101 76.5368 97.8791C77.2542 96.8091 77.7795 95.6101 78.3875 94.4671C79.4673 92.4388 80.5374 90.4057 81.6318 88.3848C81.8336 88.0127 81.7923 87.8911 81.3618 87.8181C81.1721 87.7865 80.98 87.6698 80.7684 87.6868C79.1512 87.8132 77.5534 87.4655 75.9361 87.4898C73.7474 87.5238 71.7215 86.8526 69.7589 85.9066C68.2536 85.1819 66.6801 84.5958 65.1406 83.9416C64.5764 83.7032 64.1825 83.7786 63.6669 84.2334C61.0525 86.5438 58.3701 88.7739 55.6511 91.0842C57.4775 92.0157 59.2675 92.8985 61.0793 93.7472C63.9611 95.097 66.8065 96.5294 69.6592 97.9424C69.9973 98.1102 70.3329 98.1442 70.6928 98.1418C71.6461 98.1345 72.597 98.1393 73.6671 98.1393C72.473 99.562 71.3567 100.89 70.2429 102.215C68.6621 104.098 67.0862 105.985 65.4933 107.857C64.3211 109.236 63.1124 110.586 61.9402 111.965C60.4275 113.748 58.9343 115.547 57.4313 117.34C56.9936 117.863 56.444 118.288 56.084 118.886C55.7241 119.485 55.3155 119.071 54.9605 118.869C52.9663 117.736 50.9769 116.595 48.9924 115.445C46.8304 114.193 44.6879 112.901 42.5064 111.683C42.003 111.403 41.9033 111.209 42.1392 110.688C43.7151 107.24 45.2691 103.781 46.8158 100.321C48.5644 96.4078 50.296 92.4875 52.0227 88.6012C50.6194 88.3434 49.221 88.0978 47.83 87.8278C44.8314 87.2466 41.8352 86.6556 38.839 86.0598C37.7179 85.8361 36.6113 85.5272 35.4805 85.3764C34.8263 85.2889 35.0427 85.0627 35.23 84.7465C36.0106 83.4333 36.7816 82.1127 37.572 80.8043C39.9553 76.8524 42.3483 72.9078 44.7316 68.9558C46.0084 66.8425 47.2852 64.7291 48.5401 62.6011C48.7347 62.2704 48.8635 62.1853 49.2186 62.3968C52.6234 64.4348 56.05 66.4388 59.4426 68.4962C60.4713 69.1188 61.4878 69.3231 62.6819 69.1188C65.1212 68.7005 67.5775 68.3916 70.0265 68.0293C72.794 67.6207 75.5592 67.1902 78.3292 66.7914C80.1993 66.5239 82.0671 66.2053 83.9494 66.074C85.6348 65.9572 87.2885 66.4704 88.9593 66.6649C90.951 66.8984 92.9306 67.2097 94.9151 67.4894C96.7829 67.7544 98.6506 68.0195 100.518 68.2895C102.415 68.5619 104.341 68.7078 106.197 69.1504C107.992 69.576 109.067 68.3746 110.343 67.662C113.293 66.0132 116.19 64.267 119.091 62.5306C119.6 62.2242 119.845 62.375 120.103 62.8054C122.245 66.3877 124.388 69.9675 126.54 73.5425C128.756 77.2196 130.981 80.887 133.201 84.5617C133.321 84.7587 133.425 84.9679 133.6 85.2889C127.854 86.4027 122.187 87.502 116.465 88.6134C116.686 89.1241 116.988 89.8366 117.304 90.5419C119.48 95.3961 121.659 100.248 123.838 105.102C124.622 106.846 125.361 108.606 126.197 110.323C126.596 111.143 126.39 111.505 125.631 111.936C121.46 114.297 117.323 116.715 113.182 119.13C112.853 119.322 112.705 119.297 112.454 118.996C110.198 116.289 107.921 113.597 105.643 110.907C103.879 108.828 102.094 106.763 100.329 104.684C98.5314 102.566 96.7488 100.435 94.8884 98.2269C95.8782 98.0494 96.795 98.1782 97.7022 98.1418C98.0572 98.1272 98.3953 98.1369 98.7406 97.9691C103.24 95.7658 107.749 93.5794 112.25 91.3809C112.428 91.2958 112.659 91.2593 112.751 91.0234Z" fill="#EF4F22"/>
<path d="M81.2426 140.779C80.3234 139.568 79.4235 138.371 78.5091 137.187C78.3632 137 78.1176 137.063 77.923 137.116C74.4477 138.067 70.97 139.013 67.4996 139.989C66.291 140.329 66.3007 140.366 65.9383 139.266C65.4276 137.722 65.4373 137.758 67.1932 137.267C71.848 135.961 76.4955 134.626 81.1429 133.296C81.8749 133.087 82.6143 132.882 83.322 132.605C84.392 132.189 85.3478 132.705 86.3011 132.97C90.4816 134.125 94.6403 135.356 98.8062 136.564C99.9882 136.907 101.163 137.27 102.342 137.62C102.427 137.644 102.556 137.615 102.6 137.666C103.247 138.422 102.41 138.996 102.323 139.668C102.294 139.889 102.369 140.395 101.717 140.21C98.7017 139.347 95.669 138.551 92.6412 137.732C92.0478 137.571 91.4155 137.491 90.8683 137.236C90.236 136.941 89.9296 137.262 89.6061 137.673C88.986 138.461 88.3804 139.259 87.7554 140.044C87.2642 140.662 87.3396 140.898 88.1251 141.039C92.2035 141.769 96.2843 142.491 100.365 143.213C100.917 143.311 101.185 143.44 100.934 144.14C100.319 145.847 99.7839 147.588 99.3024 149.339C99.1516 149.887 98.8208 149.692 98.5558 149.695C95.4915 149.712 92.4296 149.704 89.3654 149.704C82.9693 149.704 76.5708 149.695 70.1748 149.719C69.5328 149.721 69.2142 149.541 69.0366 148.921C68.5624 147.289 68.0906 145.65 67.5045 144.057C67.2662 143.413 67.5653 143.303 67.9958 143.226C72.0742 142.491 76.155 141.774 80.2358 141.044C80.5422 140.986 80.8438 140.884 81.2426 140.779Z" fill="#EF4F22"/>
<path d="M95.6715 115.652C95.6715 116.882 95.6472 118.115 95.6836 119.346C95.6982 119.84 95.4891 120.029 95.0562 120.134C91.6052 120.963 88.1591 121.805 84.7106 122.641C84.1343 122.782 83.5822 122.583 83.0423 122.456C79.8759 121.705 76.7216 120.898 73.5528 120.156C72.991 120.025 72.7551 119.849 72.7648 119.239C72.7965 116.836 72.7989 114.433 72.7648 112.031C72.7551 111.425 72.9691 111.342 73.5236 111.279C75.3184 111.075 76.7606 111.51 77.8865 113.033C78.497 113.857 79.3628 114.489 80.1118 115.209C80.839 114.492 81.5661 113.777 82.2908 113.057C82.7821 112.571 83.2977 112.106 83.7476 111.583C84.1464 111.119 84.4188 111.08 84.8663 111.559C85.8901 112.656 86.9918 113.682 88.0327 114.764C88.361 115.105 88.5604 115.112 88.8887 114.767C89.7569 113.852 90.6957 113.003 91.5469 112.072C92.0697 111.498 92.6242 111.206 93.4122 111.291C94.1223 111.367 95.0732 111.072 95.4988 111.435C96.0046 111.863 95.6301 112.843 95.6642 113.58C95.6982 114.268 95.6715 114.961 95.6715 115.652Z" fill="#272727"/>
<path d="M130.629 83.1C130.607 83.4818 130.303 83.3602 130.142 83.4113C127.657 84.1871 125.161 84.9361 122.674 85.7022C120.553 86.3564 118.425 86.9936 116.326 87.7085C115.857 87.8666 115.952 87.4872 115.905 87.39C114.974 85.3958 114.069 83.3894 113.169 81.3806C112.571 80.043 112.017 78.6836 111.389 77.3606C111.163 76.8863 111.238 76.6091 111.649 76.3416C113.369 75.218 115.091 74.0944 116.793 72.9466C117.075 72.7569 117.255 72.645 117.569 72.8906C120.602 75.2788 123.644 77.6548 126.689 80.0284C127.895 80.9696 129.116 81.8937 130.329 82.8276C130.441 82.9176 130.543 83.0222 130.629 83.1Z" fill="#272727"/>
<path d="M52.4191 87.7157C47.5674 86.2371 42.7302 84.7609 37.8274 83.2652C38.7759 82.2365 39.9456 81.5264 40.9962 80.68C43.3382 78.7977 45.7288 76.9737 48.1073 75.1352C49.0387 74.4153 50.0212 73.7587 50.9162 72.9975C51.298 72.6716 51.5485 72.7908 51.8428 72.9877C53.5062 74.0943 55.1575 75.2227 56.8283 76.3195C57.2004 76.5627 57.3463 76.7427 57.1226 77.2218C56.1935 79.216 55.3278 81.2418 54.4328 83.2506C53.7348 84.8046 53.032 86.3538 52.4191 87.7157Z" fill="#272727"/>
<path d="M124.023 82.4386C122.494 83.1682 121.085 83.8248 119.692 84.5155C119.41 84.6565 119.361 84.5544 119.242 84.3355C118.187 82.3972 117.117 80.4687 116.056 78.5329C115.884 78.2167 115.689 77.8495 116.146 77.616C116.591 77.3898 116.946 76.8718 117.598 77.4044C119.629 79.0654 121.715 80.6608 123.78 82.2805C123.824 82.317 123.877 82.3437 124.023 82.4386Z" fill="#EF4F22"/>
<path d="M44.6465 82.4096C44.7657 82.2807 44.8678 82.1299 45.0064 82.0254C47.0566 80.447 49.1237 78.8881 51.1593 77.2903C51.8256 76.7675 51.9861 77.5506 52.3971 77.6746C52.8519 77.8132 52.6184 78.0759 52.4871 78.3215C51.4827 80.216 50.4856 82.1129 49.4739 84.0026C49.2623 84.3941 49.0289 84.5887 48.4914 84.3041C47.4335 83.7423 46.3075 83.3119 45.2131 82.8158C45.0161 82.7282 44.7608 82.6917 44.6465 82.4096Z" fill="#EF4F22"/>
</g>
<defs>
<clipPath id="clip0">
<rect width="168.393" height="173" fill="white"/>
</clipPath>
</defs>
</svg>
