<svg width="65" height="57" viewBox="0 0 65 57" fill="none" xmlns="http://www.w3.org/2000/svg">
<g filter="url(#filter0_i)">
<path d="M32.0011 40.1046C32.5329 39.9863 32.5248 39.987 32.7809 40.384C33.152 40.9599 33.7009 41.242 34.3177 41.4632C36.4126 42.2144 38.4939 43.0097 40.5801 43.7888C40.8012 43.8712 41.0097 44.01 41.1017 43.5978C41.1717 43.2832 41.3036 43.0811 40.8576 42.9221C38.7199 42.1598 36.5982 41.346 34.4714 40.5495C34.351 40.5042 34.2323 40.4525 34.0446 40.3765C34.6055 40.0131 35.1145 39.6816 35.6256 39.3536C35.7915 39.2474 35.942 39.3704 36.0875 39.4192C37.8624 40.0108 39.6366 40.6029 41.4043 41.2165C41.6993 41.3187 41.8098 41.2751 41.8958 40.9506C42.0933 40.2029 42.5755 39.432 42.4852 38.7371C42.3949 38.0434 41.7551 37.4263 41.3441 36.7842C39.5474 33.9785 37.7392 31.181 35.9502 28.3695C34.906 26.729 34.1535 24.9125 33.2357 23.1959C33.0989 22.9393 33.1832 22.8836 33.424 22.8702C34.3762 22.8186 35.3268 22.7286 36.2796 22.7013C36.8198 22.6856 37.3123 22.5568 37.8033 22.3274C38.6876 21.9135 39.5874 21.5368 40.4805 21.1443C40.6266 21.0799 40.7569 20.9934 40.9211 21.142C42.1782 22.2845 43.4424 23.4188 44.7033 24.5549C44.5971 24.7279 44.4466 24.7598 44.3196 24.8254C42.6734 25.6765 41.0207 26.5142 39.3799 27.3774C38.7451 27.7112 38.1283 28.07 37.3928 27.8877C37.3304 28.0868 37.4623 28.1501 37.5302 28.2354C39.7242 30.9964 41.9253 33.751 44.1111 36.5189C44.3383 36.8063 44.4975 36.8214 44.793 36.6368C46.384 35.6412 47.9842 34.6624 49.5921 33.6987C49.8849 33.5228 49.9248 33.3742 49.7875 33.0526C48.4691 29.966 47.1715 26.8689 45.8526 23.7822C45.6928 23.4084 45.6933 23.2795 46.1284 23.1953C48.1894 22.7977 50.2433 22.3565 52.2994 21.9304C52.4565 21.8979 52.613 21.8584 52.7674 21.8224C52.775 21.632 52.6606 21.5182 52.5879 21.3893C50.8787 18.3776 49.1608 15.371 47.4615 12.3535C47.2738 12.0197 47.143 11.9918 46.8333 12.1909C45.4547 13.078 44.0531 13.9244 42.6729 14.8097C42.3599 15.0105 42.06 15.0535 41.7141 15.0007C38.7112 14.5415 35.7072 14.0869 32.7032 13.6376C32.4728 13.601 32.2358 13.619 32.0021 13.6132C32.0021 13.4576 32.0021 13.3015 32.0021 13.1459C32.9653 13.0577 33.8957 13.3311 34.8365 13.4623C37.1909 13.7909 39.5403 14.163 41.8897 14.5275C42.1191 14.563 42.2843 14.4666 42.4616 14.3557C43.9896 13.3996 45.5242 12.4545 47.0434 11.4833C47.3307 11.2998 47.438 11.3538 47.6022 11.6447C49.5078 15.0222 51.4244 18.3927 53.3497 21.7574C53.5357 22.0825 53.5434 22.1904 53.1488 22.2682C51.0309 22.6856 48.9211 23.1489 46.801 23.5547C46.3292 23.6452 46.3747 23.8084 46.529 24.1706C47.8156 27.1882 49.0837 30.2144 50.3725 33.2308C50.5153 33.5652 50.4891 33.7237 50.1706 33.9147C48.3197 35.0241 46.483 36.1596 44.6431 37.2898C44.4466 37.4106 44.3027 37.5273 44.0903 37.2585C41.5433 34.0389 38.9826 30.8309 36.4269 27.6189C36.4006 27.5858 36.3864 27.5423 36.3245 27.4239C36.8592 27.4239 37.3474 27.4233 37.8355 27.4239C38.026 27.4239 38.2126 27.4285 38.3938 27.335C40.2107 26.3946 42.0299 25.4576 43.866 24.5108C43.6892 24.2327 43.4363 24.069 43.218 23.8699C42.4726 23.1901 41.7157 22.5237 40.9758 21.8369C40.7744 21.65 40.6069 21.5925 40.3536 21.7272C40.0006 21.9147 39.606 22.0175 39.2634 22.2206C37.7255 23.1338 36.0438 23.2888 34.3352 23.3236C34.2181 23.3259 34.1004 23.3335 33.9838 23.3434C33.9597 23.3457 33.9379 23.3706 33.9089 23.3892C33.9078 23.5703 34.0271 23.6992 34.0949 23.8496C35.8084 27.6462 38.2263 30.9709 40.4127 34.4499C41.21 35.7189 42.0233 36.9769 42.842 38.2303C42.9996 38.4718 43.0346 38.6744 42.9383 38.9594C42.6773 39.735 42.4545 40.5251 42.2181 41.31C42.0419 41.894 42.043 41.894 41.5154 41.7163C39.7702 41.1277 38.0145 40.571 36.2862 39.9318C35.746 39.7321 35.4429 39.9643 35.0264 40.2911C36.4384 40.8194 37.7863 41.3245 39.1353 41.8278C39.8955 42.1117 40.6507 42.4106 41.4185 42.6684C41.7234 42.7706 41.7743 42.9145 41.6539 43.2001C41.4826 43.6065 41.5324 44.2294 41.1887 44.403C40.8746 44.5615 40.4285 44.1963 40.0443 44.0547C37.9548 43.2843 35.8714 42.496 33.7813 41.7268C33.384 41.5805 33.0152 41.4075 32.7765 41.0272C32.5242 40.6255 32.5033 40.6073 32.0011 40.6961C32.0021 40.4772 32.0011 40.3223 32.0011 40.1046Z" fill="#FF5D2B"/>
<path d="M32.0023 50.9928C33.0421 51.0038 34.0825 51.0201 35.1223 51.0253C36.2371 51.0311 37.3519 51.0143 38.4662 51.0346C38.7737 51.0404 38.9018 50.9307 38.9828 50.623C39.1475 49.9949 39.3363 49.3725 39.5492 48.7607C39.6642 48.4304 39.5673 48.3433 39.2723 48.2881C37.4543 47.9497 35.6395 47.5956 33.8236 47.2449C33.7093 47.2229 33.5971 47.1869 33.4105 47.1387C33.9068 46.463 34.3753 45.8186 34.852 45.1812C34.9696 45.0238 35.1207 45.1289 35.258 45.1684C36.7691 45.6079 38.2856 46.0276 39.7878 46.4984C40.2273 46.636 40.2475 46.3695 40.3597 46.0775C40.508 45.6926 40.2574 45.6735 40.0352 45.6055C37.6009 44.863 35.165 44.1258 32.734 43.3705C32.4823 43.2922 32.2453 43.345 32.0023 43.3287C32.0023 43.2039 32.0023 43.0797 32.0023 42.9549C32.4443 42.8258 32.4423 42.826 32.6793 42.8986C35.3243 43.709 37.9692 44.52 40.6186 45.3158C40.9223 45.407 40.9864 45.5399 40.861 45.8343C40.6881 46.24 40.7357 46.8734 40.3964 47.033C40.1003 47.1724 39.622 46.8885 39.228 46.7759C37.9556 46.4101 36.6832 46.0456 35.4168 45.6589C35.1612 45.5811 35.0145 45.6317 34.8678 45.8563C34.661 46.1744 34.4256 46.4711 34.1504 46.849C35.0348 47.0232 35.8584 47.1851 36.6826 47.3471C37.7487 47.5561 38.8131 47.7738 39.882 47.9665C40.1354 48.0124 40.1857 48.0919 40.1047 48.3485C39.8114 49.2768 39.5268 50.2085 39.2614 51.146C39.1869 51.409 39.0643 51.4723 38.823 51.4711C36.5491 51.4601 34.2757 51.4607 32.0018 51.4584C32.0023 51.3039 32.0023 51.1484 32.0023 50.9928Z" fill="#FF5D2B"/>
<path d="M32.0018 8.2817C32.2964 8.2817 32.5332 8.19326 32.8139 8.10967C36.9847 6.86329 41.1593 5.63316 45.3268 4.37575C45.746 4.24919 45.937 4.3264 46.1296 4.74206C46.5647 5.68018 46.5883 5.66915 45.6535 5.98205C41.3541 7.42117 37.0537 8.85738 32.7559 10.3017C32.4877 10.3917 32.5035 10.3816 32.0018 10.352C32.0018 10.1964 32.0018 9.79775 32.0018 9.64217C32.4443 9.56984 32.138 9.62135 32.2508 9.60335C33.4181 9.41816 34.5061 8.93343 35.6236 8.56712C38.7185 7.55237 41.8013 6.49523 44.895 5.47642C45.0285 5.4323 45.1845 5.42185 45.289 5.24653C45.0625 5.19835 44.8747 5.28949 44.6843 5.3458C40.7171 6.52194 36.7521 7.7033 32.7838 8.87596C32.4626 8.97058 32.0014 8.99151 32.0018 8.87596C32.0023 8.68845 32.0018 8.46863 32.0018 8.2817Z" fill="#FF5D2B"/>
<path d="M32.0006 38.5371C32.533 38.6258 32.5397 38.5432 32.8177 38.47C34.1514 38.1183 35.4873 37.774 36.8265 37.4466C37.0985 37.3798 37.2096 37.2777 37.203 36.9607C37.1822 35.9512 37.1882 34.9405 37.1997 33.9304C37.203 33.6697 37.1258 33.5983 36.879 33.5774C36.2048 33.5199 35.6214 33.6192 35.189 34.2618C34.9707 34.5864 34.6489 34.8302 34.3938 35.1291C34.2242 35.3288 34.1087 35.3196 33.9385 35.1274C33.5779 34.7193 33.1674 34.3582 32.8325 33.9292C32.5358 33.549 32.533 33.5388 32.0006 33.6571C32.0006 33.4081 32.0006 33.1963 32.0006 32.9473C32.5625 32.8881 32.5714 32.9052 32.8483 33.2453C33.1915 33.668 33.5937 34.036 33.956 34.4424C34.1076 34.6125 34.2067 34.6363 34.3687 34.4517C34.708 34.065 35.0768 33.7086 35.4178 33.3237C35.5825 33.138 35.7587 33.0619 35.9973 33.0712C36.4215 33.0874 36.8473 33.088 37.2714 33.0712C37.5407 33.0607 37.6622 33.1269 37.6583 33.4538C37.6419 34.7744 37.6457 36.0957 37.6561 37.417C37.6583 37.6707 37.568 37.7641 37.3436 37.8204C35.7927 38.2088 34.2433 38.6065 32.6962 39.0134C32.4598 39.0755 32.2316 39.0001 32.0006 39.032C32.0023 38.8439 32.0006 38.724 32.0006 38.5371Z" fill="#FF5D2B"/>
<path d="M45.3989 56.6025C45.6906 56.2135 45.9691 55.8391 46.251 55.4676C51.9328 47.9899 57.6124 40.511 63.3035 33.0414C63.5498 32.718 63.5864 32.5027 63.379 32.1242C57.6392 21.6469 51.9147 11.1609 46.188 0.676099C46.1366 0.582054 46.0841 0.488009 46.0332 0.393965C45.9675 0.271474 45.8903 0.162917 46.0687 0.0508757C46.2313 -0.0512963 46.3041 0.00849752 46.373 0.158272C46.4179 0.2558 46.4759 0.346362 46.5273 0.440987C52.3131 11.0332 58.0973 21.6266 63.8924 32.213C64.0697 32.5369 64.0593 32.7273 63.8371 33.0193C57.926 40.7803 52.0247 48.5501 46.1245 56.3204C45.9434 56.559 45.7743 56.7796 45.3989 56.6025Z" fill="#FF5D2B"/>
<path d="M42.3152 52.3986C43.772 50.4799 45.1517 48.6623 46.5319 46.8453C49.8003 42.543 53.0719 38.2437 56.332 33.9339C56.5569 33.6366 56.7829 33.5066 57.1441 33.5252C57.768 33.5571 58.3941 33.5339 59.0257 33.5339C59.0262 33.758 58.8916 33.8497 58.8046 33.964C54.2206 40.0003 49.6333 46.0331 45.0548 52.074C44.8682 52.3202 44.6811 52.4136 44.3915 52.4049C43.737 52.3846 43.0819 52.3986 42.3152 52.3986Z" fill="#FF5D2B"/>
<path d="M51.4289 20.5912C49.5961 21.1793 47.8443 21.7424 46.0924 22.3032C45.358 22.5383 45.3575 22.5371 45.0373 21.7796C44.5158 20.5454 43.9997 19.3083 43.4672 18.0799C43.3583 17.8285 43.3451 17.684 43.5991 17.5168C44.2591 17.082 44.8977 16.6112 45.5435 16.1526C45.6924 16.0469 45.8133 15.9523 46.006 16.1125C47.783 17.5899 49.5676 19.0563 51.4289 20.5912Z" fill="#FF5D2B"/>
</g>
<g filter="url(#filter-logo)">
<path d="M32.0145 40.1046C31.4979 39.9863 31.4908 39.987 31.2346 40.384C30.8636 40.9599 30.3147 41.242 29.6979 41.4632C27.6029 42.2144 25.5217 43.0097 23.4354 43.7888C23.2143 43.8712 23.0058 44.01 22.9139 43.5978C22.8438 43.2832 22.7119 43.0811 23.158 42.9221C25.2956 42.1598 27.4174 41.346 29.5441 40.5495C29.6645 40.5042 29.7833 40.4525 29.971 40.3765C29.41 40.0131 28.9011 39.6816 28.3899 39.3536C28.2241 39.2474 28.0736 39.3704 27.928 39.4192C26.1532 40.0108 24.3789 40.6029 22.6112 41.2165C22.3163 41.3187 22.2057 41.2751 22.1198 40.9506C21.9222 40.2029 21.4401 39.432 21.5304 38.7371C21.6207 38.0434 22.2604 37.4263 22.6714 36.7842C24.4681 33.9785 26.2763 31.181 28.0654 28.3695C29.1096 26.729 29.8621 24.9125 30.7799 23.1959C30.9167 22.9393 30.8324 22.8836 30.5916 22.8702C29.6393 22.8186 28.6887 22.7286 27.7359 22.7013C27.1958 22.6856 26.7032 22.5568 26.2123 22.3274C25.3279 21.9135 24.4282 21.5368 23.535 21.1443C23.3889 21.0799 23.2587 20.9934 23.0945 21.142C21.8374 22.2845 20.5732 23.4188 19.3123 24.5549C19.4185 24.7279 19.569 24.7598 19.6959 24.8254C21.3421 25.6765 22.9949 26.5142 24.6356 27.3774C25.2705 27.7112 25.8872 28.07 26.6228 27.8877C26.6852 28.0868 26.5533 28.1501 26.4854 28.2354C24.2914 30.9964 22.0902 33.751 19.9044 36.5189C19.6773 36.8063 19.5181 36.8214 19.2225 36.6368C17.6316 35.6412 16.0314 34.6624 14.4235 33.6987C14.1307 33.5228 14.0907 33.3742 14.2281 33.0526C15.5465 29.966 16.8441 26.8689 18.163 23.7822C18.3228 23.4084 18.3223 23.2795 17.8872 23.1953C15.8261 22.7977 13.7722 22.3565 11.7161 21.9304C11.559 21.8979 11.4025 21.8584 11.2482 21.8224C11.2405 21.632 11.3549 21.5182 11.4277 21.3893C13.1368 18.3776 14.8547 15.371 16.554 12.3535C16.7417 12.0197 16.8725 11.9918 17.1823 12.1909C18.5609 13.078 19.9624 13.9244 21.3427 14.8097C21.6557 15.0105 21.9556 15.0535 22.3015 15.0007C25.3044 14.5415 28.3084 14.0869 31.3124 13.6376C31.5428 13.601 31.7797 13.619 32.0134 13.6132C32.0134 13.4576 32.0134 13.3015 32.0134 13.1459C31.0502 13.0577 30.1198 13.3311 29.1791 13.4623C26.8247 13.7909 24.4753 14.163 22.1258 14.5275C21.8965 14.563 21.7312 14.4666 21.5539 14.3557C20.0259 13.3996 18.4914 12.4545 16.9721 11.4833C16.6848 11.2998 16.5776 11.3538 16.4134 11.6447C14.5078 15.0222 12.5912 18.3927 10.6659 21.7574C10.4798 22.0825 10.4722 22.1904 10.8667 22.2682C12.9847 22.6856 15.0944 23.1489 17.2146 23.5547C17.6863 23.6452 17.6409 23.8084 17.4866 24.1706C16.1999 27.1882 14.9319 30.2144 13.6431 33.2308C13.5002 33.5652 13.5265 33.7237 13.845 33.9147C15.6959 35.0241 17.5325 36.1596 19.3725 37.2898C19.569 37.4106 19.7129 37.5273 19.9252 37.2585C22.4722 34.0389 25.0329 30.8309 27.5887 27.6189C27.615 27.5858 27.6292 27.5423 27.691 27.4239C27.1564 27.4239 26.6682 27.4233 26.18 27.4239C25.9896 27.4239 25.803 27.4285 25.6218 27.335C23.8049 26.3946 21.9857 25.4576 20.1496 24.5108C20.3264 24.2327 20.5792 24.069 20.7976 23.8699C21.543 23.1901 22.2998 22.5237 23.0398 21.8369C23.2412 21.65 23.4086 21.5925 23.662 21.7272C24.015 21.9147 24.4096 22.0175 24.7522 22.2206C26.29 23.1338 27.9718 23.2888 29.6804 23.3236C29.7975 23.3259 29.9152 23.3335 30.0317 23.3434C30.0558 23.3457 30.0777 23.3706 30.1067 23.3892C30.1078 23.5703 29.9885 23.6992 29.9206 23.8496C28.2071 27.6462 25.7893 30.9709 23.6029 34.4499C22.8055 35.7189 21.9923 36.9769 21.1736 38.2303C21.0159 38.4718 20.9809 38.6744 21.0772 38.9594C21.3383 39.735 21.561 40.5251 21.7975 41.31C21.9737 41.894 21.9726 41.894 22.5002 41.7163C24.2454 41.1277 26.0011 40.571 27.7294 39.9318C28.2695 39.7321 28.5727 39.9643 28.9892 40.2911C27.5772 40.8194 26.2293 41.3245 24.8802 41.8278C24.1201 42.1117 23.3648 42.4106 22.597 42.6684C22.2922 42.7706 22.2413 42.9145 22.3617 43.2001C22.533 43.6065 22.4832 44.2294 22.8269 44.403C23.141 44.5615 23.587 44.1963 23.9712 44.0547C26.0607 43.2843 28.1442 42.496 30.2342 41.7268C30.6315 41.5805 31.0004 41.4075 31.239 41.0272C31.4913 40.6255 31.4979 40.6073 32.0007 40.6961C31.9996 40.4772 32.0145 40.3223 32.0145 40.1046Z" fill="#FF5D2B"/>
<path d="M32.0132 50.9928C30.9734 51.0038 29.9331 51.0201 28.8932 51.0253C27.7784 51.0311 26.6636 51.0143 25.5494 51.0346C25.2418 51.0404 25.1138 50.9307 25.0328 50.623C24.868 49.9949 24.6792 49.3725 24.4663 48.7607C24.3514 48.4303 24.4483 48.3433 24.7433 48.2881C26.5613 47.9497 28.3761 47.5956 30.1919 47.2449C30.3063 47.2229 30.4185 47.1869 30.6051 47.1387C30.1087 46.463 29.6403 45.8186 29.1636 45.1812C29.0459 45.0238 28.8949 45.1289 28.7575 45.1684C27.2465 45.6078 25.73 46.0276 24.2277 46.4984C23.7883 46.636 23.768 46.3695 23.6558 46.0775C23.5075 45.6926 23.7582 45.6734 23.9804 45.6055C26.4146 44.863 28.8506 44.1258 31.2815 43.3705C31.5333 43.2921 31.7703 43.345 32.0132 43.3287C32.0132 43.2039 32.0132 43.0797 32.0132 42.9549C31.5865 42.8258 31.5732 42.826 31.3363 42.8986C28.6913 43.709 26.0463 44.5199 23.397 45.3158C23.0932 45.407 23.0292 45.5399 23.1545 45.8343C23.3275 46.24 23.2799 46.8734 23.6192 47.033C23.9152 47.1724 24.3936 46.8885 24.7876 46.7759C26.06 46.4101 27.3324 46.0456 28.5988 45.6589C28.8544 45.5811 29.0011 45.6316 29.1477 45.8563C29.3546 46.1744 29.5899 46.4711 29.8652 46.849C28.9808 47.0232 28.1572 47.1851 27.333 47.3471C26.2669 47.5561 25.2024 47.7738 24.1336 47.9665C23.8802 48.0124 23.8299 48.0919 23.9109 48.3485C24.2042 49.2768 24.4888 50.2085 24.7542 51.146C24.8286 51.409 24.9512 51.4723 25.1926 51.4711C27.4665 51.4601 29.7399 51.4607 32.0138 51.4584C32.0132 51.3039 32.0132 51.1484 32.0132 50.9928Z" fill="#FF5D2B"/>
<path d="M32.0138 8.2817C31.6752 8.2817 31.4824 8.19326 31.2016 8.10967C27.0309 6.86329 22.8563 5.63316 18.6888 4.37575C18.2696 4.24919 18.0786 4.3264 17.8859 4.74206C17.4508 5.68018 17.4273 5.66915 18.362 5.98205C22.6614 7.42117 26.9619 8.85738 31.2596 10.3017C31.5278 10.3917 31.5274 10.3816 32.0006 10.352C32.0006 10.1964 32.0006 9.79775 32.0006 9.64217C31.7344 9.59846 31.8775 9.62135 31.7648 9.60335C30.5974 9.41816 29.5095 8.93343 28.3919 8.56712C25.2971 7.55237 22.2143 6.49523 19.1206 5.47642C18.987 5.4323 18.8311 5.42185 18.7265 5.24653C18.9531 5.19835 19.1408 5.28949 19.3313 5.3458C23.2985 6.52194 27.2635 7.7033 31.2317 8.87596C31.553 8.97058 32.0143 9.03114 32.0138 8.84363C32.0132 8.65612 32.0138 8.46863 32.0138 8.2817Z" fill="#FF5D2B"/>
<path d="M32.0006 38.5371C31.4683 38.6258 31.4759 38.5432 31.1979 38.4701C29.8642 38.1183 28.5283 37.774 27.1891 37.4466C26.9171 37.3798 26.806 37.2777 26.8126 36.9607C26.8334 35.9512 26.8273 34.9405 26.8159 33.9304C26.8126 33.6697 26.8897 33.5983 27.1366 33.5774C27.8108 33.5199 28.3942 33.6192 28.8265 34.2618C29.0449 34.5864 29.3667 34.8302 29.6217 35.1291C29.7914 35.3288 29.9069 35.3196 30.0771 35.1274C30.4377 34.7193 30.8482 34.3582 31.1831 33.9292C31.4797 33.549 31.4683 33.5388 32.0006 33.6571C32.0006 33.4081 32.0006 33.1963 32.0006 32.9473C31.4387 32.8881 31.4441 32.9052 31.1672 33.2453C30.8241 33.668 30.4218 34.036 30.0595 34.4424C29.9079 34.6125 29.8089 34.6363 29.6469 34.4517C29.3076 34.065 28.9387 33.7086 28.5978 33.3237C28.433 33.138 28.2568 33.0619 28.0182 33.0712C27.5941 33.0874 27.1683 33.088 26.7442 33.0712C26.4749 33.0607 26.3534 33.1269 26.3572 33.4538C26.3737 34.7744 26.3698 36.0957 26.3594 37.417C26.3572 37.6707 26.4475 37.7641 26.6719 37.8204C28.2229 38.2088 29.7722 38.6065 31.3194 39.0134C31.5558 39.0755 31.784 39.0001 32.015 39.032C32.0133 38.8439 32.0006 38.724 32.0006 38.5371Z" fill="#FF5D2B"/>
<path d="M18.6167 56.6025C18.325 56.2135 18.0464 55.8391 17.7646 55.4676C12.0828 47.9899 6.40318 40.511 0.712082 33.0414C0.465809 32.718 0.42914 32.5027 0.636559 32.1242C6.37637 21.6469 12.1009 11.1609 17.8275 0.676099C17.879 0.582054 17.9315 0.488009 17.9824 0.393965C18.0481 0.271474 18.1252 0.162917 17.9468 0.0508757C17.7843 -0.0512963 17.7115 0.00849752 17.6426 0.158272C17.5977 0.2558 17.5397 0.346362 17.4882 0.440987C11.7024 11.0332 5.9183 21.6266 0.123215 32.213C-0.0541019 32.5369 -0.0437031 32.7273 0.17849 33.0193C6.0896 40.7803 11.9909 48.5501 17.891 56.3204C18.0722 56.5589 18.2413 56.7796 18.6167 56.6025Z" fill="#FF5D2B"/>
<path d="M21.7005 52.3986C20.2436 50.4799 18.8639 48.6623 17.4837 46.8453C14.2154 42.543 10.9438 38.2437 7.68369 33.9339C7.45876 33.6366 7.23273 33.5066 6.87153 33.5252C6.24764 33.5571 5.62156 33.5339 4.99 33.5339C4.98946 33.758 5.12409 33.8497 5.2111 33.964C9.79507 40.0003 14.3823 46.0331 18.9608 52.074C19.1474 52.3202 19.3346 52.4136 19.6241 52.4049C20.2787 52.3846 20.9337 52.3986 21.7005 52.3986Z" fill="#FF5D2B"/>
<path d="M12.5866 20.5912C14.4195 21.1793 16.1713 21.7424 17.9231 22.3032C18.6576 22.5383 18.6581 22.5371 18.9783 21.7796C19.4998 20.5454 20.0159 19.3083 20.5484 18.0799C20.6573 17.8285 20.6704 17.684 20.4165 17.5168C19.7565 17.082 19.1178 16.6112 18.472 16.1526C18.3232 16.0469 18.2022 15.9523 18.0096 16.1125C16.2326 17.5899 14.4479 19.0563 12.5866 20.5912Z" fill="#FF5D2B"/>
</g>
<defs>
<filter id="filter0_i" x="32.0006" y="0" width="32.0149" height="60.6667" filterUnits="userSpaceOnUse" color-interpolation-filters="sRGB">
<feFlood flood-opacity="0" result="BackgroundImageFix"/>
<feBlend mode="normal" in="SourceGraphic" in2="BackgroundImageFix" result="shape"/>
<feColorMatrix in="SourceAlpha" type="matrix" values="0 0 0 0 0 0 0 0 0 0 0 0 0 0 0 0 0 0 127 0" result="hardAlpha"/>
<feOffset dy="4"/>
<feGaussianBlur stdDeviation="2"/>
<feComposite in2="hardAlpha" operator="arithmetic" k2="-1" k3="1"/>
<feColorMatrix type="matrix" values="0 0 0 0 0 0 0 0 0 0 0 0 0 0 0 0 0 0 0.25 0"/>
<feBlend mode="normal" in2="shape" result="effect1_innerShadow"/>
</filter>
<filter id="filter-logo" x="1.52588e-05" y="0" width="32.0149" height="60.6667" filterUnits="userSpaceOnUse" color-interpolation-filters="sRGB">
<feFlood flood-opacity="0" result="BackgroundImageFix"/>
<feBlend mode="normal" in="SourceGraphic" in2="BackgroundImageFix" result="shape"/>
<feColorMatrix in="SourceAlpha" type="matrix" values="0 0 0 0 0 0 0 0 0 0 0 0 0 0 0 0 0 0 127 0" result="hardAlpha"/>
<feOffset dy="4"/>
<feGaussianBlur stdDeviation="2"/>
<feComposite in2="hardAlpha" operator="arithmetic" k2="-1" k3="1"/>
<feColorMatrix type="matrix" values="0 0 0 0 0 0 0 0 0 0 0 0 0 0 0 0 0 0 0.25 0"/>
<feBlend mode="normal" in2="shape" result="effect1_innerShadow"/>
</filter>
</defs>
</svg>
