<svg width="542" height="958" viewBox="0 0 542 958" fill="none" xmlns="http://www.w3.org/2000/svg">
<path d="M541.215 681.969C536.459 675.187 532.379 676.012 528.049 682.725C521.776 692.46 512.496 697.23 502.069 700.969C466.652 713.669 431.466 727.114 396.197 740.285C392.459 741.679 388.934 744.024 387.379 737.056C386.195 731.737 383.965 728.322 391.506 725.633C427.645 712.746 463.515 698.987 499.469 685.522C501.505 684.756 503.512 683.883 506.686 682.597C497.202 676.453 488.598 670.849 479.956 665.304C477.153 663.508 474.609 665.589 472.148 666.413C442.143 676.414 412.147 686.425 382.263 696.798C377.276 698.526 375.407 697.789 373.954 692.303C370.614 679.663 362.463 666.629 363.99 654.882C365.517 643.154 376.332 632.721 383.281 621.866C413.655 574.434 444.225 527.139 474.47 479.609C492.123 451.874 504.845 421.165 520.361 392.144C522.674 387.807 521.249 386.864 517.178 386.639C501.079 385.765 485.008 384.244 468.9 383.783C459.768 383.518 451.441 381.339 443.142 377.462C428.191 370.465 412.98 364.095 397.881 357.461C395.41 356.371 393.208 354.909 390.433 357.422C369.18 376.736 347.808 395.913 326.491 415.12C328.286 418.044 330.83 418.584 332.977 419.693C360.807 434.081 388.749 448.243 416.487 462.836C427.219 468.48 437.646 474.545 450.081 471.463C451.136 474.829 448.906 475.899 447.759 477.342C410.667 524.018 373.455 570.587 336.502 617.381C332.662 622.239 329.97 622.495 324.974 619.374C298.078 602.542 271.024 585.995 243.842 569.704C238.892 566.73 238.216 564.218 240.538 558.78C262.827 506.598 284.764 454.239 307.061 402.057C309.763 395.736 309.754 393.558 302.398 392.135C267.555 385.412 232.831 377.953 198.071 370.749C195.416 370.2 192.77 369.532 190.161 368.924C190.031 365.705 191.965 363.781 193.195 361.602C222.09 310.686 251.132 259.858 279.86 208.844C283.034 203.2 285.245 202.729 290.482 206.096C313.788 221.092 337.483 235.401 360.816 250.368C366.109 253.763 371.179 254.49 377.026 253.597C427.793 245.834 478.578 238.149 529.363 230.553C533.258 229.935 537.264 230.239 541.215 230.141C541.215 227.51 541.215 224.87 541.215 222.24C524.931 220.748 509.202 225.371 493.298 227.589C453.495 233.144 413.776 239.435 374.056 245.598C370.18 246.197 367.385 244.568 364.388 242.693C338.556 226.529 312.613 210.551 286.929 194.132C282.071 191.031 280.258 191.944 277.482 196.86C245.266 253.96 212.865 310.941 180.316 367.825C177.171 373.321 177.041 375.146 183.712 376.461C219.518 383.518 255.185 391.349 291.027 398.21C299.003 399.741 298.235 402.498 295.626 408.622C273.874 459.637 252.437 510.799 230.648 561.793C228.233 567.446 228.677 570.126 234.062 573.355C265.353 592.11 296.403 611.306 327.509 630.415C330.83 632.456 333.264 634.429 336.853 629.885C379.913 575.455 423.204 521.221 466.411 466.919C466.855 466.36 467.096 465.624 468.141 463.622C459.102 463.622 450.849 463.612 442.596 463.622C439.376 463.622 436.221 463.7 433.159 462.12C402.442 446.221 371.688 430.381 340.647 414.374C343.635 409.673 347.91 406.905 351.601 403.539C364.203 392.046 376.998 380.779 389.507 369.169C392.912 366.009 395.743 365.037 400.027 367.314C405.995 370.484 412.666 372.221 418.457 375.656C444.456 391.094 472.888 393.715 501.773 394.304C503.753 394.343 505.742 394.47 507.713 394.637C508.12 394.676 508.49 395.098 508.98 395.413C508.999 398.475 506.982 400.653 505.835 403.195C476.866 467.38 435.99 523.587 399.028 582.403C385.547 603.857 371.799 625.125 357.958 646.314C355.293 650.396 354.701 653.822 356.329 658.64C360.742 671.752 364.508 685.109 368.505 698.378C371.484 708.251 371.466 708.251 380.385 705.248C409.89 695.297 439.571 685.885 468.789 675.079C477.921 671.703 483.047 675.629 490.088 681.154C466.217 690.085 443.429 698.624 420.622 707.133C407.771 711.932 395.003 716.986 382.022 721.344C376.869 723.071 376.008 725.505 378.044 730.333C380.94 737.203 380.098 747.734 385.908 750.669C391.219 753.348 398.76 747.175 405.255 744.78C440.579 731.757 475.802 718.429 511.136 705.425C517.853 702.952 524.089 700.027 528.123 693.599C532.388 686.807 536.589 686.071 541.233 693.039C541.215 689.339 541.215 685.649 541.215 681.969Z" fill="#EF4F22"/>
<path d="M541.214 862.07C523.635 862.257 506.047 862.532 488.468 862.62C469.621 862.718 450.775 862.433 431.937 862.777C426.738 862.875 424.573 861.02 423.203 855.819C420.418 845.2 417.226 834.679 413.627 824.335C411.684 818.75 413.322 817.278 418.309 816.346C449.044 810.624 479.725 804.637 510.423 798.71C512.357 798.337 514.254 797.728 517.409 796.914C509.017 785.49 501.097 774.596 493.038 763.82C491.049 761.16 488.496 762.937 486.173 763.604C460.628 771.033 434.99 778.129 409.593 786.088C402.164 788.414 401.822 783.91 399.925 778.973C397.417 772.466 401.655 772.142 405.411 770.994C446.565 758.442 487.746 745.978 528.844 733.209C533.1 731.884 537.106 732.777 541.214 732.503C541.214 730.393 541.214 728.292 541.214 726.182C537.551 723.817 533.776 724.004 529.769 725.23C485.054 738.931 440.338 752.641 395.549 766.097C390.414 767.638 389.331 769.885 391.45 774.861C394.374 781.721 393.569 792.428 399.305 795.127C404.31 797.483 412.397 792.684 419.058 790.78C440.57 784.597 462.081 778.433 483.49 771.897C487.811 770.582 490.291 771.436 492.77 775.234C496.267 780.612 500.246 785.627 504.9 792.016C489.948 794.96 476.024 797.699 462.09 800.437C444.067 803.97 426.071 807.65 408.002 810.909C403.718 811.684 402.867 813.029 404.236 817.366C409.195 833.059 414.007 848.811 418.494 864.661C419.752 869.107 421.825 870.177 425.905 870.157C464.348 869.971 502.781 869.981 541.224 869.941C541.214 867.331 541.214 864.701 541.214 862.07Z" fill="#EE4E22"/>
<path d="M541.214 136.925C536.653 138.947 532.24 138.505 527.493 137.092C456.983 116.021 386.407 95.2241 315.952 73.9665C308.865 71.827 305.636 73.1323 302.379 80.1593C295.024 96.0191 294.626 95.8326 310.429 101.122C383.114 125.452 455.817 149.732 528.474 174.15C533.008 175.671 537.116 176.015 541.224 173.277C541.224 170.647 541.224 168.007 541.224 165.376C539.947 164.179 538.92 162.648 537.014 162.344C517.279 159.213 498.886 151.018 479.993 144.825C427.672 127.67 375.555 109.798 323.252 92.5743C320.995 91.8284 318.358 91.6517 316.591 88.6878C320.421 87.8733 323.595 89.4141 326.814 90.3661C393.883 110.25 460.915 130.222 528.002 150.046C533.433 151.646 537.68 151.165 541.224 146.415C541.214 143.245 541.214 140.085 541.214 136.925Z" fill="#EF4F22"/>
<path d="M541.214 650.367C536.616 652.045 532.129 651.604 527.429 650.367C504.881 644.42 482.297 638.6 459.657 633.065C455.058 631.936 453.18 630.209 453.291 624.85C453.643 607.783 453.541 590.696 453.347 573.62C453.291 569.213 454.596 568.006 458.769 567.653C470.167 566.681 480.03 568.359 487.339 579.224C491.031 584.71 496.471 588.832 500.783 593.886C503.651 597.262 505.603 597.105 508.48 593.857C514.578 586.957 521.517 580.853 527.179 573.6C532.194 567.172 536.265 566.2 541.242 572.972C541.242 568.762 541.242 564.542 541.242 560.331C535.691 553.795 531.592 556.288 526.911 562.039C521.11 569.184 514.309 575.406 508.184 582.276C505.621 585.151 503.947 585.554 501.208 582.433C495.472 575.897 489.236 569.871 483.472 563.364C480.687 560.223 477.708 558.938 473.674 559.095C466.503 559.369 459.305 559.379 452.135 559.095C447.583 558.918 445.529 560.037 445.594 565.562C445.871 587.89 445.806 610.227 445.631 632.564C445.594 636.853 447.12 638.433 450.914 639.385C477.134 645.951 503.327 652.673 529.483 659.553C533.48 660.603 537.338 659.327 541.242 659.867C541.214 656.687 541.214 653.527 541.214 650.367Z" fill="#EE4E22"/>
<path d="M314.731 956.915C309.8 950.34 305.091 944.009 300.326 937.728C204.27 811.311 108.251 684.874 12.0381 558.594C7.87463 553.127 7.25476 549.486 10.7613 543.087C107.798 365.96 204.575 188.685 301.39 11.43C302.26 9.84013 303.148 8.25023 304.008 6.66032C305.118 4.58951 306.423 2.75425 303.407 0.860098C300.659 -0.86721 299.428 0.143658 298.263 2.67573C297.504 4.32453 296.523 5.85555 295.654 7.45527C197.84 186.526 100.054 365.616 2.08279 544.589C-0.914917 550.065 -0.739105 553.284 3.01727 558.221C102.95 689.428 202.716 820.782 302.463 952.145C305.526 956.179 308.384 959.908 314.731 956.915Z" fill="#EF4F22"/>
<path d="M366.867 885.84C342.237 853.404 318.913 822.676 295.579 791.957C240.325 719.224 185.016 646.54 129.901 573.679C126.098 568.654 122.277 566.455 116.17 566.769C105.623 567.309 95.0385 566.917 84.3615 566.917C84.3523 570.705 86.6283 572.256 88.0994 574.189C165.595 676.237 243.147 778.227 320.55 880.354C323.705 884.516 326.87 886.096 331.764 885.948C342.83 885.605 353.904 885.84 366.867 885.84Z" fill="#EF4F22"/>
<path d="M212.791 348.108C243.776 358.05 273.392 367.569 303.008 377.05C315.425 381.025 315.434 381.005 320.847 368.197C329.664 347.332 338.389 326.418 347.391 305.651C349.232 301.402 349.454 298.958 345.161 296.131C334.003 288.781 323.206 280.821 312.288 273.068C309.772 271.282 307.727 269.682 304.47 272.391C274.428 297.368 244.257 322.159 212.791 348.108Z" fill="#EF4F22"/>
</svg>
