<svg width="542" height="958" viewBox="0 0 542 958" fill="none" xmlns="http://www.w3.org/2000/svg">
<g filter="url(#logo-left-half)">
<path d="M0.0272934 681.969C4.7829 675.187 8.8631 676.012 13.1931 682.725C19.4661 692.46 28.746 697.23 39.1731 700.969C74.5904 713.669 109.776 727.114 145.046 740.285C148.783 741.679 152.308 744.024 153.863 737.056C155.047 731.737 157.277 728.322 149.736 725.633C113.597 712.746 77.7269 698.987 41.773 685.522C39.7375 684.756 37.7298 683.883 34.5563 682.597C44.0398 676.453 52.6443 670.849 61.2858 665.304C64.0892 663.508 66.6335 665.589 69.0946 666.413C99.0993 676.414 129.095 686.425 158.979 696.798C163.966 698.526 165.835 697.789 167.288 692.303C170.628 679.663 178.779 666.629 177.252 654.882C175.726 643.154 164.91 632.721 157.962 621.866C127.587 574.434 97.0176 527.139 66.7723 479.609C49.1192 451.874 36.3975 421.165 20.8816 392.144C18.5686 387.807 19.9934 386.864 24.0644 386.639C40.1631 385.765 56.2341 384.244 72.3421 383.783C81.474 383.518 89.8009 381.339 98.1001 377.462C113.052 370.465 128.262 364.095 143.362 357.461C145.832 356.371 148.034 354.909 150.81 357.422C172.062 376.736 193.434 395.913 214.751 415.12C212.956 418.044 210.412 418.584 208.265 419.693C180.435 434.081 152.493 448.243 124.756 462.836C114.023 468.48 103.596 474.545 91.161 471.463C90.1062 474.829 92.336 475.899 93.4833 477.342C130.575 524.018 167.787 570.587 204.74 617.381C208.58 622.239 211.272 622.495 216.269 619.374C243.165 602.542 270.218 585.995 297.401 569.704C302.351 566.73 303.026 564.218 300.704 558.78C278.415 506.598 256.478 454.239 234.181 402.057C231.479 395.736 231.488 393.558 238.844 392.135C273.687 385.412 308.411 377.953 343.171 370.749C345.826 370.2 348.473 369.532 351.082 368.924C351.211 365.705 349.277 363.781 348.047 361.602C319.152 310.686 290.11 259.858 261.382 208.844C258.209 203.2 255.997 202.729 250.761 206.096C227.454 221.092 203.76 235.401 180.426 250.368C175.134 253.763 170.063 254.49 164.216 253.597C113.449 245.834 62.6644 238.149 11.8793 230.553C7.98414 229.935 3.97796 230.239 0.0272934 230.141C0.0272934 227.51 0.0272934 224.87 0.0272934 222.24C16.3111 220.748 32.0397 225.371 47.9442 227.589C87.7469 233.144 127.466 239.435 167.186 245.598C171.063 246.197 173.857 244.568 176.854 242.693C202.686 226.529 228.629 210.551 254.313 194.132C259.171 191.031 260.984 191.944 263.76 196.86C295.976 253.96 328.377 310.941 360.926 367.825C364.072 373.321 364.201 375.146 357.53 376.461C321.725 383.518 286.058 391.349 250.215 398.21C242.239 399.741 243.007 402.498 245.616 408.622C267.368 459.637 288.805 510.799 310.594 561.793C313.009 567.446 312.565 570.126 307.18 573.355C275.889 592.11 244.839 611.306 213.733 630.415C210.412 632.456 207.979 634.429 204.389 629.885C161.329 575.455 118.038 521.221 74.8309 466.919C74.3868 466.36 74.1463 465.624 73.1008 463.622C82.1401 463.622 90.3931 463.612 98.646 463.622C101.866 463.622 105.021 463.7 108.083 462.12C138.8 446.221 169.554 430.381 200.595 414.374C197.607 409.673 193.332 406.905 189.641 403.539C177.039 392.046 164.244 380.779 151.735 369.169C148.33 366.009 145.499 365.037 141.215 367.314C135.247 370.484 128.577 372.221 122.785 375.656C96.7863 391.094 68.3544 393.715 39.4692 394.304C37.4893 394.343 35.5 394.47 33.5293 394.637C33.1222 394.676 32.7522 395.098 32.2618 395.413C32.2433 398.475 34.2603 400.653 35.4075 403.195C64.376 467.38 105.252 523.587 142.214 582.403C155.695 603.857 169.443 625.125 183.285 646.314C185.949 650.396 186.541 653.822 184.913 658.64C180.5 671.752 176.734 685.109 172.737 698.378C169.758 708.251 169.777 708.251 160.857 705.248C131.352 695.297 101.671 685.885 72.4531 675.079C63.3213 671.703 58.1956 675.629 51.1547 681.154C75.0252 690.085 97.8133 698.624 120.62 707.133C133.471 711.932 146.239 716.986 159.22 721.344C164.373 723.071 165.234 725.505 163.198 730.333C160.302 737.203 161.144 747.734 155.334 750.669C150.023 753.348 142.483 747.175 135.988 744.78C100.663 731.757 65.44 718.429 30.106 705.425C23.389 702.952 17.153 700.027 13.1191 693.599C8.85385 686.807 4.65337 686.071 0.00878906 693.039C0.0272934 689.339 0.0272934 685.649 0.0272934 681.969Z" fill="#EF4F22"/>
<path d="M0.0278068 862.07C17.6069 862.257 35.1952 862.532 52.7743 862.62C71.6209 862.718 90.4676 862.433 109.305 862.777C114.505 862.875 116.67 861.02 118.039 855.819C120.824 845.2 124.016 834.679 127.615 824.335C129.558 818.75 127.92 817.278 122.933 816.346C92.1977 810.624 61.5176 804.637 30.819 798.71C28.8853 798.337 26.9886 797.728 23.8336 796.914C32.2253 785.49 40.1451 774.596 48.2037 763.82C50.193 761.16 52.7465 762.937 55.0688 763.604C80.614 771.033 106.252 778.129 131.649 786.088C139.078 788.414 139.421 783.91 141.317 778.973C143.825 772.466 139.587 772.142 135.831 770.994C94.6773 758.442 53.496 745.978 12.3979 733.209C8.14194 731.884 4.13576 732.777 0.0278068 732.503C0.0278068 730.393 0.0278068 728.292 0.0278068 726.182C3.69166 723.817 7.46653 724.004 11.4727 725.23C56.1883 738.931 100.904 752.641 145.694 766.097C150.829 767.638 151.911 769.885 149.792 774.861C146.869 781.721 147.674 792.428 141.937 795.127C136.932 797.483 128.845 792.684 122.184 790.78C100.673 784.597 79.1614 778.433 57.752 771.897C53.4312 770.582 50.9516 771.436 48.472 775.234C44.9747 780.612 40.9963 785.627 36.3425 792.016C51.294 794.96 65.2184 797.699 79.1522 800.437C97.1754 803.97 115.171 807.65 133.24 810.909C137.524 811.684 138.375 813.029 137.006 817.366C132.047 833.059 127.236 848.811 122.748 864.661C121.49 869.107 119.418 870.177 115.337 870.157C76.8947 869.971 38.4612 869.981 0.0185547 869.941C0.0278068 867.331 0.0278068 864.701 0.0278068 862.07Z" fill="#EE4E22"/>
<path d="M0.0278068 136.925C4.58912 138.947 9.00239 138.505 13.7487 137.092C84.2594 116.021 154.835 95.2241 225.29 73.9665C232.377 71.827 235.606 73.1323 238.863 80.1593C246.218 96.0191 246.616 95.8326 230.813 101.122C158.129 125.452 85.4251 149.732 12.768 174.15C8.23446 175.671 4.12651 176.015 0.0185547 173.277C0.0185547 170.647 0.0185547 168.007 0.0185547 165.376C1.29535 164.179 2.32234 162.648 4.22828 162.344C23.9631 159.213 42.3564 151.018 61.2493 144.825C113.57 127.67 165.688 109.798 217.99 92.5743C220.247 91.8284 222.884 91.6517 224.651 88.6878C220.821 87.8733 217.648 89.4141 214.428 90.3661C147.359 110.25 80.3272 130.222 13.2399 150.046C7.80886 151.646 3.56213 151.165 0.0185547 146.415C0.0278068 143.245 0.0278068 140.085 0.0278068 136.925Z" fill="#EF4F22"/>
<path d="M0.0277564 650.367C4.62607 652.045 9.11336 651.604 13.8135 650.367C36.3609 644.42 58.9454 638.6 81.5854 633.065C86.1837 631.936 88.0619 630.209 87.9509 624.85C87.5993 607.783 87.7011 590.696 87.8954 573.62C87.9509 569.213 86.6463 568.006 82.4736 567.653C71.075 566.681 61.2122 568.359 53.903 579.224C50.2114 584.71 44.7711 588.832 40.4596 593.886C37.5915 597.262 35.6393 597.105 32.7618 593.857C26.6647 586.957 19.7256 580.853 14.0633 573.6C9.0486 567.172 4.97765 566.2 0 572.972C0 568.762 0 564.542 0 560.331C5.55129 553.795 9.64999 556.288 14.3316 562.039C20.1327 569.184 26.933 575.406 33.0579 582.276C35.6208 585.151 37.2954 585.554 40.034 582.433C45.7704 575.897 52.0063 569.871 57.7704 563.364C60.5553 560.223 63.5345 558.938 67.5684 559.095C74.7388 559.369 81.937 559.379 89.1074 559.095C93.6595 558.918 95.7134 560.037 95.6487 565.562C95.3711 587.89 95.4359 610.227 95.6117 632.564C95.6487 636.853 94.1221 638.433 90.3287 639.385C64.1081 645.951 37.9153 652.673 11.7595 659.553C7.76255 660.603 3.9044 659.327 0 659.867C0.0277564 656.687 0.0277564 653.527 0.0277564 650.367Z" fill="#EE4E22"/>
<path d="M226.511 956.915C231.442 950.34 236.151 944.009 240.916 937.728C336.972 811.311 432.991 684.874 529.204 558.594C533.368 553.127 533.987 549.486 530.481 543.087C433.444 365.96 336.667 188.685 239.852 11.43C238.983 9.84013 238.094 8.25023 237.234 6.66032C236.124 4.58951 234.819 2.75425 237.835 0.860098C240.583 -0.86721 241.814 0.143658 242.98 2.67573C243.738 4.32453 244.719 5.85555 245.589 7.45527C343.402 186.526 441.188 365.616 539.159 544.589C542.157 550.065 541.981 553.284 538.225 558.221C438.292 689.428 338.527 820.782 238.779 952.145C235.717 956.179 232.858 959.908 226.511 956.915Z" fill="#EF4F22"/>
<path d="M174.375 885.84C199.005 853.404 222.329 822.676 245.663 791.957C300.917 719.224 356.227 646.54 411.342 573.679C415.144 568.654 418.965 566.455 425.072 566.769C435.619 567.309 446.204 566.917 456.881 566.917C456.89 570.705 454.614 572.256 453.143 574.189C375.647 676.237 298.095 778.227 220.692 880.354C217.537 884.516 214.373 886.096 209.478 885.948C198.413 885.605 187.338 885.84 174.375 885.84Z" fill="#EF4F22"/>
<path d="M328.452 348.108C297.466 358.05 267.85 367.569 238.234 377.05C225.817 381.025 225.808 381.005 220.396 368.197C211.578 347.332 202.854 326.418 193.851 305.651C192.01 301.402 191.788 298.958 196.081 296.131C207.239 288.781 218.036 280.821 228.954 273.068C231.47 271.282 233.515 269.682 236.772 272.391C266.814 297.368 296.985 322.159 328.452 348.108Z" fill="#EF4F22"/>
</g>
<defs>
<filter id="logo-left-half" x="0" y="0" width="541.242" height="962" filterUnits="userSpaceOnUse" color-interpolation-filters="sRGB">
<feFlood flood-opacity="0" result="BackgroundImageFix"/>
<feBlend mode="normal" in="SourceGraphic" in2="BackgroundImageFix" result="shape"/>
<feColorMatrix in="SourceAlpha" type="matrix" values="0 0 0 0 0 0 0 0 0 0 0 0 0 0 0 0 0 0 127 0" result="hardAlpha"/>
<feOffset dy="4"/>
<feGaussianBlur stdDeviation="2"/>
<feComposite in2="hardAlpha" operator="arithmetic" k2="-1" k3="1"/>
<feColorMatrix type="matrix" values="0 0 0 0 0 0 0 0 0 0 0 0 0 0 0 0 0 0 0.25 0"/>
<feBlend mode="normal" in2="shape" result="effect1_innerShadow"/>
</filter>
</defs>
</svg>
